<?xml version="1.0" encoding="utf-8"?>
<!-- Generator: Adobe Illustrator 25.2.0, SVG Export Plug-In . SVG Version: 6.00 Build 0)  -->
<svg version="1.1" id="Layer_1" xmlns="http://www.w3.org/2000/svg" xmlns:xlink="http://www.w3.org/1999/xlink" x="0px" y="0px"
	 viewBox="0 0 2000 2000" style="enable-background:new 0 0 2000 2000;" xml:space="preserve">
<style type="text/css">
	.st0{fill:#171719;}
	.st1{fill:#FFFFFF;}
	.st2{fill:url(#SVGID_1_);}
	.st3{fill:url(#SVGID_2_);}
	.st4{fill:#953A9A;}
	.st5{fill:url(#SVGID_3_);}
	.st6{fill:#FF0032;}
	.st7{fill:url(#SVGID_4_);}
	.st8{fill:none;}
</style>
<g>
	<path class="st0" d="M1891.8,669.5c-48.2-286.4-206.8-480-498.1-544.8c-257.5-57.3-517.7-57.4-775.4-1.8
		c-270.8,58.4-437.7,226.5-496.1,497.4c-53.6,248.2-53.6,498-3,746.5c54.9,269.7,214.3,445.5,486.5,507
		c265.2,59.9,532.6,59.9,797.3-1.6c210.6-48.9,365.4-169.8,444.1-378c57-151,63.2-308.3,71.5-522
		C1918.6,904.6,1911.6,787.3,1891.8,669.5z"/>
</g>
<g>
	<path class="st1" d="M1644.3,999.7c0,0,0,35.3-1.6,84.2c-1.3,38.7-3.6,86-7.8,130.9c-3.9,42-9.4,82.1-17.2,111.3
		c-14.6,55.1-57.7,98.4-112.4,113.2c-45.8,12.4-155.4,19-260,22.6c-121.8,4.2-236.9,4.2-236.9,4.2s-4.4,0-12.4,0
		c-67.9-0.3-395.8-2.8-484.5-26.7c-54.7-14.7-97.8-58.1-112.4-113.2c-26.6-99.8-26.6-326.4-26.6-326.4s0-224.9,26.6-324.7
		c14.6-55.1,57.7-98.4,112.4-113.2c77.3-20.8,335.9-25.4,446.3-26.5c31.2-0.3,50.6-0.3,50.6-0.3s83.1,0,182.8,2.6
		c14,0.4,28.4,0.8,42.9,1.2c1.5,0,3,0.1,4.4,0.1c9.6,0.3,19.3,0.7,29,1c20.3,0.8,40.6,1.7,60.3,2.7c50.8,2.7,98.4,6.3,134.3,11.1
		c0.7,0.1,1.4,0.2,2,0.3c1.6,0.2,3.1,0.4,4.7,0.7c6.7,1,12.9,2,18.6,3c6.7,1.2,12.7,2.6,17.9,4c54.7,14.7,97.8,58.1,112.4,113.2
		c10.2,38.5,16.5,95.5,20.4,151.1c3.4,49.2,5,97.2,5.6,130.2C1644.3,982.9,1644.3,999.7,1644.3,999.7z"/>
	
		<linearGradient id="SVGID_1_" gradientUnits="userSpaceOnUse" x1="864.2501" y1="189.1263" x2="1081.2805" y2="-27.9041" gradientTransform="matrix(1 0 0 1 0 920)">
		<stop  offset="4.795011e-07" style="stop-color:#2E73FF"/>
		<stop  offset="1" style="stop-color:#FF0032"/>
	</linearGradient>
	<path class="st2" d="M1155,967.7L948,848.2c-25.3-14.6-57,3.7-57,32.9v239c0,29.3,31.7,47.5,57,32.9l207-119.5
		C1180.3,1018.9,1180.3,982.3,1155,967.7z"/>
	<path class="st1" d="M1115.6,979.6c-0.9,0-1.8-0.2-2.7-0.7l-42-24.3c-2.6-1.5-3.5-4.8-2-7.4c1.5-2.6,4.8-3.5,7.4-2l42,24.3
		c2.6,1.5,3.5,4.8,2,7.4C1119.3,978.6,1117.5,979.6,1115.6,979.6z"/>
	<circle class="st1" cx="1131.8" cy="982.3" r="5.8"/>
	
		<linearGradient id="SVGID_2_" gradientUnits="userSpaceOnUse" x1="1527.8204" y1="-144.5189" x2="1420.3821" y2="-330.6075" gradientTransform="matrix(1 0 0 1 0 920)">
		<stop  offset="4.049120e-07" style="stop-color:#953A9A"/>
		<stop  offset="1" style="stop-color:#FF0032"/>
	</linearGradient>
	<path class="st3" d="M1548.5,761.7c-5.6,0-10.6-3.9-11.9-9.5c-0.9-3.9-1.8-7.5-2.7-11c-10.1-38-35.7-70.5-70.2-89.3
		c-9.7-5.2-19.9-9.3-30.5-12.2c-5.5-1.4-11.4-2.7-16.7-3.7c-4.5-0.8-15-2.7-25.8-4.2c-6.7-0.9-11.4-7.1-10.4-13.8
		c0.9-6.7,7.1-11.4,13.8-10.4c13.9,1.9,25.6,4.1,26.9,4.4h0.1c5.7,1.1,12.1,2.5,18,4c0.1,0,0.2,0,0.2,0.1
		c12.5,3.4,24.5,8.2,35.9,14.4c40.4,21.9,70.4,60,82.2,104.5c1,3.7,2,7.7,2.9,11.8c1.5,6.6-2.6,13.1-9.2,14.6
		C1550.3,761.6,1549.4,761.7,1548.5,761.7z"/>
	<circle class="st4" cx="1556.9" cy="789.5" r="12.7"/>
	
		<linearGradient id="SVGID_3_" gradientUnits="userSpaceOnUse" x1="1818.2106" y1="1631.6356" x2="1818.2106" y2="1785.8698" gradientTransform="matrix(-1 0 0 -1 2354.123 3025.2698)">
		<stop  offset="4.049120e-07" style="stop-color:#953A9A"/>
		<stop  offset="1" style="stop-color:#FF0032"/>
	</linearGradient>
	<path class="st5" d="M457.8,1239.4c5.6,0,10.6,3.9,11.9,9.5c0.9,3.9,1.8,7.5,2.7,11c10.1,38,35.7,70.5,70.2,89.3
		c9.7,5.2,19.9,9.3,30.5,12.2c5.5,1.4,11.4,2.7,16.7,3.7c4.5,0.8,15,2.7,25.8,4.2c6.7,0.9,11.4,7.1,10.4,13.8
		c-0.9,6.7-7.1,11.4-13.8,10.4c-13.9-1.9-25.6-4.1-26.9-4.4h-0.1c-5.7-1.1-12.1-2.5-18-4c-0.1,0-0.2,0-0.2-0.1
		c-12.5-3.4-24.5-8.2-35.9-14.4c-40.4-21.9-70.4-60-82.2-104.5c-1-3.7-2-7.7-2.9-11.8c-1.5-6.6,2.6-13.1,9.2-14.6
		C456,1239.5,456.9,1239.4,457.8,1239.4z"/>
	<circle class="st6" cx="449.3" cy="1211.6" r="12.7"/>
	
		<linearGradient id="SVGID_4_" gradientUnits="userSpaceOnUse" x1="771.3139" y1="468.1404" x2="1507.9542" y2="-268.4998" gradientTransform="matrix(1 0 0 1 0 920)">
		<stop  offset="4.795011e-07" style="stop-color:#2E73FF"/>
		<stop  offset="1" style="stop-color:#FF0032"/>
	</linearGradient>
	<path class="st7" d="M957.8,535.4c-12.1-19.5-13.3-44.9-1-66.1l1.4-2.3c17.8-30.6,57-40.9,87.6-23.1l145.4,93.8
		c-99.7-2.6-182.8-2.6-182.8-2.6S989,535.1,957.8,535.4z M1749.9,898.2l-111.8-72.1c3.4,49.2,5,97.2,5.6,130.2l9.5,5.7
		c43.8,26.4,43.6,90-0.5,116l-10.1,6L996,1466l-19.7,11.7c-30.7,17.6-41.4,56.7-23.8,87.4l1.4,2.4c17.5,30.7,56.7,41.4,87.4,23.8
		l204-129.3l389.7-247l114-72.3C1838.3,1085.9,1838.9,955.6,1749.9,898.2z"/>
</g>
<rect class="st8" width="2000" height="2000"/>
</svg>
