<?xml version="1.0" standalone="no"?>
<!DOCTYPE svg PUBLIC "-//W3C//DTD SVG 20010904//EN"
 "http://www.w3.org/TR/2001/REC-SVG-20010904/DTD/svg10.dtd">
<svg version="1.0" xmlns="http://www.w3.org/2000/svg"
 width="1000.000000pt" height="1000.000000pt" viewBox="0 0 1000.000000 1000.000000"
 preserveAspectRatio="xMidYMid meet">
<metadata>
Created by potrace 1.14, written by Peter Selinger 2001-2017
</metadata>
<g transform="translate(0.000000,1000.000000) scale(0.100000,-0.100000)"
fill="#000000" stroke="none">
<path d="M4645 9560 c-408 -36 -722 -99 -1070 -215 -426 -142 -734 -290 -1090
-526 -517 -342 -959 -781 -1289 -1279 -135 -204 -190 -299 -290 -499 -104
-206 -149 -312 -220 -516 -183 -526 -256 -960 -256 -1525 0 -565 73 -999 256
-1525 71 -202 116 -309 216 -510 107 -214 151 -289 284 -490 334 -504 778
-950 1279 -1283 201 -133 286 -182 505 -292 474 -237 974 -384 1525 -447 227
-26 782 -26 1010 0 380 43 643 103 1003 227 257 89 530 213 767 348 189 107
495 322 665 465 387 327 734 735 1000 1177 74 123 251 478 299 600 98 248 191
552 240 785 122 582 122 1308 0 1890 -49 233 -142 537 -240 785 -48 122 -225
477 -299 600 -549 912 -1378 1602 -2356 1960 -376 138 -667 206 -1084 256
-157 18 -700 27 -855 14z m-320 -3289 c37 -16 189 -104 870 -499 138 -79 336
-194 440 -255 184 -106 230 -133 495 -287 182 -106 211 -138 211 -235 0 -103
-23 -127 -281 -275 -107 -62 -274 -159 -370 -215 -96 -56 -294 -171 -440 -255
-146 -84 -348 -201 -450 -259 -528 -307 -520 -303 -598 -282 -53 15 -100 55
-123 106 -18 38 -19 96 -19 1182 0 783 3 1151 11 1170 24 64 109 123 179 123
19 0 53 -9 75 -19z"/>
</g>
</svg>
