<?xml version="1.0" standalone="no"?>
<!DOCTYPE svg PUBLIC "-//W3C//DTD SVG 20010904//EN"
 "http://www.w3.org/TR/2001/REC-SVG-20010904/DTD/svg10.dtd">
<svg version="1.0" xmlns="http://www.w3.org/2000/svg"
 width="700.000000pt" height="700.000000pt" viewBox="0 0 700.000000 700.000000"
 preserveAspectRatio="xMidYMid meet">
<metadata>
Created by potrace 1.11, written by Peter Selinger 2001-2013
</metadata>
<g transform="translate(0.000000,700.000000) scale(0.100000,-0.100000)"
fill="#000000" stroke="none">
<path d="M3220 6934 c-620 -33 -1238 -142 -1594 -281 -683 -266 -1142 -776
-1355 -1507 -83 -284 -159 -733 -191 -1136 -64 -804 49 -1824 264 -2373 118
-304 267 -542 466 -751 243 -254 526 -435 879 -561 339 -122 941 -225 1481
-255 618 -34 1312 32 1900 180 861 218 1426 764 1675 1621 104 359 152 750
186 1504 19 426 -12 880 -91 1354 -168 998 -687 1661 -1525 1951 -306 106
-748 190 -1235 235 -154 15 -715 27 -860 19z m1395 -1714 c441 -22 698 -51
817 -91 142 -48 273 -164 340 -305 88 -182 125 -522 135 -1224 l5 -415 -68
-40 c-38 -22 -584 -345 -1214 -718 l-1145 -678 -285 6 c-820 17 -1272 44
-1491 90 -222 46 -406 223 -463 446 -120 475 -127 1843 -11 2362 13 60 35 132
48 160 59 127 171 237 303 298 132 60 441 93 1124 119 289 11 1631 4 1905 -10z
m1265 -2534 c0 -30 -35 -264 -51 -341 -37 -181 -123 -316 -256 -405 -124 -83
-212 -106 -513 -134 -178 -17 -628 -41 -635 -34 -5 4 1436 918 1448 918 4 0 7
-2 7 -4z"/>
<path d="M4943 4959 c-7 -7 -13 -23 -13 -35 0 -32 15 -39 124 -59 218 -39 377
-173 438 -368 27 -86 34 -97 64 -97 37 0 45 28 28 96 -40 154 -177 324 -316
392 -111 54 -301 95 -325 71z"/>
<path d="M5552 4318 c-29 -29 7 -82 49 -71 24 7 36 48 19 68 -15 18 -51 20
-68 3z"/>
<path d="M3144 4048 c-22 -21 -38 -47 -44 -71 -4 -21 -6 -250 -3 -509 l6 -471
29 -33 c33 -38 87 -59 126 -49 47 11 815 455 849 491 18 18 35 45 39 59 10 40
-5 93 -34 125 -15 16 -208 132 -429 259 -379 218 -405 231 -453 231 -43 0 -55
-5 -86 -32z m717 -384 c80 -46 100 -67 83 -84 -9 -9 -154 66 -183 95 -14 13
-8 35 10 35 5 0 46 -21 90 -46z m155 -85 c10 -17 -23 -46 -37 -32 -7 7 -9 19
-6 27 7 18 33 21 43 5z"/>
<path d="M1400 2730 c-23 -43 17 -83 60 -60 22 12 27 49 8 68 -19 19 -56 14
-68 -8z"/>
<path d="M1442 2588 c-18 -18 -15 -60 11 -131 36 -99 73 -155 157 -238 93 -93
186 -141 323 -170 118 -24 144 -24 157 1 16 31 -4 58 -48 66 -201 34 -276 68
-377 169 -72 72 -121 155 -145 245 -7 25 -17 51 -22 58 -13 15 -40 16 -56 0z"/>
</g>
</svg>
