<?xml version="1.0" standalone="no"?>
<!DOCTYPE svg PUBLIC "-//W3C//DTD SVG 20010904//EN"
 "http://www.w3.org/TR/2001/REC-SVG-20010904/DTD/svg10.dtd">
<svg version="1.0" xmlns="http://www.w3.org/2000/svg"
 width="500.000000pt" height="500.000000pt" viewBox="0 0 500.000000 500.000000"
 preserveAspectRatio="xMidYMid meet">
<metadata>
Created by potrace 1.11, written by Peter Selinger 2001-2013
</metadata>
<g transform="translate(0.000000,500.000000) scale(0.100000,-0.100000)"
fill="#000000" stroke="none">
<path d="M2105 4214 c-502 -11 -965 -39 -1138 -69 -332 -58 -561 -267 -641
-585 -55 -221 -80 -553 -80 -1065 0 -656 42 -1029 138 -1230 90 -189 257 -332
460 -394 218 -67 709 -95 1661 -95 960 0 1455 28 1665 96 227 73 395 227 479
438 85 214 128 705 118 1330 -10 591 -51 910 -140 1086 -117 232 -311 373
-577 418 -134 23 -393 43 -685 55 -272 11 -1019 20 -1260 15z m575 -1249 c261
-169 489 -317 506 -330 91 -69 91 -231 0 -300 -29 -22 -826 -529 -946 -602
-30 -18 -68 -33 -83 -33 -68 0 -104 97 -53 143 14 12 235 146 491 297 390 229
470 280 483 306 17 36 11 71 -15 101 -10 11 -223 143 -473 293 -250 150 -466
283 -479 296 -56 53 -10 153 63 141 18 -3 239 -140 506 -312z m-233 -257 c274
-154 291 -168 279 -233 -4 -18 -14 -39 -24 -47 -27 -23 -494 -284 -521 -291
-33 -8 -85 18 -100 49 -7 17 -11 119 -11 315 l0 291 29 29 c50 50 68 44 348
-113z"/>
</g>
</svg>
